<svg width="36" height="36" viewBox="0 0 36 36" fill="none" xmlns="http://www.w3.org/2000/svg">
<path fill-rule="evenodd" clip-rule="evenodd" d="M28 35.5H5.5C2.74 35.5 0.5 33.26 0.5 30.5V8.00001C0.5 5.24001 2.74 3.00001 5.5 3.00001H15.61C16.9475 3.06001 18 4.16251 18 5.50001C18 6.83751 16.9475 7.94001 15.61 8.00001H6.4975C5.945 8.00001 5.5 8.44751 5.5 8.99751V29.5025C5.5 30.0525 5.9475 30.5 6.4975 30.5H27.0025C27.5525 30.5 28 30.0525 28 29.5025V20.5C28 20.5 28 20.4875 28 20.465C28.0275 19.145 29.08 18.0725 30.4025 18.025C31.7225 17.975 33 19.06 33 20.5C33 22.5525 33 30.5 33 30.5C33 33.26 30.76 35.5 28 35.5V35.5V35.5ZM12.2425 17.73L24.0125 5.96002L30.04 11.9875L21.285 20.745L18.27 23.7575C18.2675 23.76 17.595 24.3825 16.29 24.63C14.4375 24.98 13.0875 25.235 11.7875 25.48C11.4175 25.55 11.045 25.43 10.7875 25.2125C10.57 24.955 10.45 24.5825 10.52 24.2125C10.765 22.9125 11.02 21.5625 11.37 19.71C11.6175 18.4075 12.2375 17.735 12.2425 17.73V17.73V17.73ZM31.475 1.02251C30.7775 0.325015 29.645 0.325015 28.95 1.02251L26.5725 3.40001L32.6 9.42751L34.9775 7.05001C35.675 6.35501 35.675 5.22251 34.9775 4.52501L31.475 1.02251V1.02251V1.02251Z" fill="#727272"/>
</svg>
