<svg width="40" height="40" viewBox="0 0 40 40" fill="none" xmlns="http://www.w3.org/2000/svg">
<path d="M20 20C18.9477 20 17.8953 19.8133 17.075 19.4398L5.5125 14.1672C4.98359 13.9266 3.75 13.2227 3.75 11.8938C3.75 10.5648 4.98359 9.8625 5.51406 9.61875L17.1766 4.30078C18.7836 3.56641 21.2086 3.56641 22.8164 4.30078L34.4859 9.61875C35.0164 9.86016 36.25 10.5641 36.25 11.8938C36.25 13.2234 35.0164 13.925 34.4859 14.168L22.9234 19.4398C22.1047 19.8133 21.0523 20 20 20Z" fill="#FF820C"/>
<path d="M34.4812 17.7195L33.3023 17.1875L30.2734 18.5734L22.9297 21.9328C22.1094 22.3078 21.0547 22.4945 20.0047 22.4945C18.9547 22.4945 17.9008 22.3078 17.0812 21.9328L9.73203 18.5734L6.70234 17.1875L5.51328 17.7219C4.98359 17.9633 3.75 18.6719 3.75 20C3.75 21.3281 4.98359 22.0375 5.5125 22.2789L17.075 27.5625C17.8906 27.9375 18.9445 28.125 20 28.125C21.0555 28.125 22.1047 27.9375 22.925 27.5633L34.4773 22.2813C35.0094 22.0398 36.25 21.3352 36.25 20C36.25 18.6648 35.018 17.9633 34.4812 17.7195Z" fill="#FF820C"/>
<path d="M34.4812 25.8437L33.3023 25.3125L30.2734 26.6977L22.9297 30.0531C22.1094 30.4266 21.0547 30.6141 20.0047 30.6141C18.9547 30.6141 17.9008 30.4273 17.0812 30.0531L9.73203 26.6937L6.70234 25.3125L5.51328 25.8469C4.98359 26.0883 3.75 26.7969 3.75 28.125C3.75 29.4531 4.98359 30.1617 5.5125 30.4023L17.075 35.6828C17.8906 36.0562 18.9484 36.25 20 36.25C21.0516 36.25 22.1 36.0563 22.9203 35.682L34.4766 30.4031C35.0094 30.1625 36.25 29.4578 36.25 28.125C36.25 26.7922 35.018 26.0883 34.4812 25.8437Z" fill="#FF820C"/>
</svg>
