<svg width="34" height="38" viewBox="0 0 34 38" fill="none" xmlns="http://www.w3.org/2000/svg">
<path fill-rule="evenodd" clip-rule="evenodd" d="M20.4926 38C23.2526 38 25.4926 35.76 25.4926 33H12.9926C8.13505 33 5.49255 30.0275 5.49255 25.5375V8C2.73255 8 0.492554 10.24 0.492554 13V33C0.492554 35.76 2.73255 38 5.49255 38H20.4926ZM28.0076 30.5H12.9926C10.2326 30.5 7.99255 28.26 7.99255 25.5V5.5C7.99255 2.74 10.2326 0.5 12.9926 0.5H28.0076C30.7676 0.5 33.0076 2.74 33.0076 5.5V25.5C33.0076 28.26 30.7676 30.5 28.0076 30.5ZM19.2426 18H14.2426C13.5526 18 12.9926 18.56 12.9926 19.25C12.9926 19.94 13.5526 20.5 14.2426 20.5H19.2426C19.9326 20.5 20.4926 19.94 20.4926 19.25C20.4926 18.56 19.9326 18 19.2426 18ZM26.7426 13H14.2426C13.5526 13 12.9926 13.56 12.9926 14.25C12.9926 14.94 13.5526 15.5 14.2426 15.5H26.7426C27.4326 15.5 27.9926 14.94 27.9926 14.25C27.9926 13.56 27.4326 13 26.7426 13ZM26.7426 8H14.2426C13.5526 8 12.9926 8.56 12.9926 9.25C12.9926 9.94 13.5526 10.5 14.2426 10.5H26.7426C27.4326 10.5 27.9926 9.94 27.9926 9.25C27.9926 8.56 27.4326 8 26.7426 8Z" fill="#FF820C"/>
</svg>
